<svg id="trash" xmlns="http://www.w3.org/2000/svg" width="26.241" height="34.408" viewBox="0 0 26.241 34.408">
  <path id="Path_33" data-name="Path 33" d="M74.552,3.128a1.763,1.763,0,0,1,1.826-1.775h7.507a1.763,1.763,0,0,1,1.826,1.775V5.072h1.353V3.128A3.116,3.116,0,0,0,83.885,0H76.378A3.116,3.116,0,0,0,73.2,3.128V5.072h1.353Zm0,0" transform="translate(-67.011)" fill="#f02f2f"/>
  <path id="Path_34" data-name="Path 34" d="M30.939,147.925H46.933a2.88,2.88,0,0,0,2.739-3.043V124H28.2v20.881A2.88,2.88,0,0,0,30.939,147.925Zm12.309-20.7a.676.676,0,0,1,1.353,0v15.978a.676.676,0,0,1-1.353,0Zm-4.988,0a.676.676,0,1,1,1.353,0v15.978a.676.676,0,0,1-1.353,0Zm-4.988,0a.676.676,0,0,1,1.353,0v15.978a.676.676,0,0,1-1.353,0Zm0,0" transform="translate(-25.815 -113.517)" fill="#f02f2f"/>
  <path id="Path_35" data-name="Path 35" d="M1.691,71.382H24.55a1.691,1.691,0,1,0,0-3.382H1.691a1.691,1.691,0,1,0,0,3.382Zm0,0" transform="translate(0 -62.251)" fill="#f02f2f"/>
</svg>
