<svg id="check" xmlns="http://www.w3.org/2000/svg" width="16.564" height="16.564" viewBox="0 0 16.564 16.564">
  <path id="Path_30" data-name="Path 30" d="M8.282,16.564a8.282,8.282,0,1,1,8.282-8.282A8.291,8.291,0,0,1,8.282,16.564Zm0-15.529a7.247,7.247,0,1,0,7.247,7.247A7.255,7.255,0,0,0,8.282,1.035Zm0,0" fill="#fff"/>
  <path id="Path_31" data-name="Path 31" d="M149.432,176.174a.514.514,0,0,1-.366-.152l-2.243-2.243a.518.518,0,0,1,.732-.732l1.877,1.877,4.121-4.12a.518.518,0,1,1,.732.732l-4.486,4.486A.519.519,0,0,1,149.432,176.174Zm0,0" transform="translate(-141.927 -165.131)" fill="#fff"/>
</svg>
